<svg width="772" height="106" viewBox="0 0 772 106" fill="none" xmlns="http://www.w3.org/2000/svg">
<path d="M694.436 99.5879V5.72852H747.448C759.357 5.72852 768 14.3718 768 26.1522C768 37.9327 759.357 46.6399 747.448 46.6399H743.863C741.302 46.6399 740.085 47.9204 740.085 49.521C740.085 50.2893 740.406 51.1856 740.854 52.018L767.232 99.5879H747.192L720.558 50.4174C719.982 49.393 718.573 46.6399 715.692 46.6399C712.299 46.6399 711.787 49.393 711.787 51.3137V99.5879H694.436ZM711.787 26.1522C711.787 29.6735 714.284 31.9144 718.445 31.9144H744.055C748.217 31.9144 750.714 29.6735 750.714 26.1522C750.714 22.6309 748.217 20.39 744.055 20.39H718.445C714.284 20.39 711.787 22.6309 711.787 26.1522Z" fill="white"/>
<path d="M647.188 101.317C625.164 101.317 610.438 87.6795 610.438 67.0638V38.0608C610.438 17.6371 625.164 4 647.188 4C669.212 4 683.874 17.6371 683.874 38.0608V67.0638C683.874 87.6795 669.212 101.317 647.188 101.317ZM627.789 65.9113C627.789 77.9479 635.536 85.9509 647.188 85.9509C658.84 85.9509 666.587 77.9479 666.587 65.9113V39.4053C666.587 27.3688 658.84 19.3658 647.188 19.3658C635.536 19.3658 627.789 27.3688 627.789 39.4053V65.9113Z" fill="white"/>
<path d="M567.353 28.3931C567.353 23.7833 563.96 20.39 559.35 20.39H543.216V5.72852H608.777V20.39H592.002C587.841 20.39 584.64 23.5272 584.64 27.7528V99.5879H567.353V28.3931Z" fill="white"/>
<path d="M504.8 101.317C482.775 101.317 468.05 87.6795 468.05 67.0638V38.0608C468.05 17.6371 482.775 4 504.8 4C526.824 4 541.486 17.6371 541.486 38.7651V46.8962H524.199V38.7651C524.199 27.3688 516.452 19.3658 504.8 19.3658C493.147 19.3658 485.4 27.3688 485.4 39.4053V65.9113C485.4 77.9479 493.147 85.9509 504.8 85.9509C516.452 85.9509 524.199 77.9479 524.199 66.4235V58.4205H541.486V66.4235C541.486 87.6795 526.824 101.317 504.8 101.317Z" fill="white"/>
<path d="M398.388 99.5879V5.72852H459.531V20.39H422.269C418.236 20.39 415.739 22.5028 415.739 26.0242C415.739 29.6735 418.236 31.9144 422.269 31.9144H459.531V46.6399H422.91C418.492 46.6399 415.739 49.393 415.739 53.8106V77.6916C415.739 82.1733 418.492 84.9264 422.91 84.9264H459.531V99.5879H398.388Z" fill="white"/>
<path d="M319.127 99.5879V5.72852H370.923C382.895 5.72852 391.538 14.3718 391.538 26.1522C391.538 37.9327 382.895 46.6399 370.923 46.6399H343.776C339.615 46.6399 336.478 49.7771 336.478 53.9387V99.5879H319.127ZM336.478 26.1522C336.478 29.6735 338.975 31.9144 343.136 31.9144H367.529C371.755 31.9144 374.252 29.6735 374.252 26.1522C374.252 22.6309 371.755 20.39 367.529 20.39H343.136C338.975 20.39 336.478 22.6309 336.478 26.1522Z" fill="white"/>
<path d="M275.911 100.741C254.271 100.741 241.594 88.8321 241.594 68.6645V64.3109H258.881V68.2804C258.881 79.1645 265.283 85.5669 276.167 85.5669C286.411 85.5669 292.558 80.4449 292.686 71.9297C292.814 64.0548 287.436 59.7011 278.152 59.5731L271.622 59.445C253.439 59.0609 242.555 49.3932 242.555 32.2988C242.555 15.3964 255.424 4.38428 274.887 4.38428C296.143 4.38428 308.564 15.3964 308.564 33.8994V38.061H291.277V34.2835C291.277 25.1281 285.067 19.7501 274.759 19.7501C265.731 19.7501 259.841 24.4238 259.841 31.7866C259.841 38.8933 265.091 42.9268 274.183 43.0549L280.777 43.1829C299.024 43.6311 310.036 53.4268 310.036 70.8413C310.036 89.6004 297.167 100.741 275.911 100.741Z" fill="white"/>
<path d="M197.738 101.317C175.713 101.317 160.988 87.6795 160.988 67.0638V38.0608C160.988 17.6371 175.713 4 197.738 4C219.762 4 234.423 17.6371 234.423 38.0608V67.0638C234.423 87.6795 219.762 101.317 197.738 101.317ZM178.338 65.9113C178.338 77.9479 186.085 85.9509 197.738 85.9509C209.39 85.9509 217.137 77.9479 217.137 65.9113V39.4053C217.137 27.3688 209.39 19.3658 197.738 19.3658C186.085 19.3658 178.338 27.3688 178.338 39.4053V65.9113Z" fill="white"/>
<path d="M83.2612 99.5879V5.72852H136.273C148.182 5.72852 156.825 14.3718 156.825 26.1522C156.825 37.9327 148.182 46.6399 136.273 46.6399H132.688C130.127 46.6399 128.91 47.9204 128.91 49.521C128.91 50.2893 129.231 51.1856 129.679 52.018L156.057 99.5879H136.017L109.383 50.4174C108.807 49.393 107.398 46.6399 104.517 46.6399C101.124 46.6399 100.612 49.393 100.612 51.3137V99.5879H83.2612ZM100.612 26.1522C100.612 29.6735 103.109 31.9144 107.27 31.9144H132.88C137.042 31.9144 139.538 29.6735 139.538 26.1522C139.538 22.6309 137.042 20.39 132.88 20.39H107.27C103.109 20.39 100.612 22.6309 100.612 26.1522Z" fill="white"/>
<path d="M4 99.5879V5.72852H55.7955C67.7681 5.72852 76.4113 14.3718 76.4113 26.1522C76.4113 37.9327 67.7681 46.6399 55.7955 46.6399H28.6493C24.4877 46.6399 21.3505 49.7771 21.3505 53.9387V99.5879H4ZM21.3505 26.1522C21.3505 29.6735 23.8475 31.9144 28.0091 31.9144H52.4023C56.6279 31.9144 59.1248 29.6735 59.1248 26.1522C59.1248 22.6309 56.6279 20.39 52.4023 20.39H28.0091C23.8475 20.39 21.3505 22.6309 21.3505 26.1522Z" fill="white"/>
</svg>
