<?xml version="1.0" encoding="UTF-8"?>
<svg id="Layer_2" data-name="Layer 2" xmlns="http://www.w3.org/2000/svg" viewBox="0 0 595.56 352.7">
  <defs>
    <style>
      .cls-1 {
        fill: #fff;
      }

      .cls-2 {
        opacity: .8;
      }
    </style>
  </defs>
  <g id="Layer_1-2" data-name="Layer 1">
    <g class="cls-2">
      <path class="cls-1" d="M145.02,45.73c.57,2.03,1.85,3.14,3.58,4.18-.96,1.83-1.44,3.4-.85,5.51l3.31,11.76,7.5-2.11c4.34-1.22,5.3-4.69,4.54-9.49l4.73-1.33,5.07,18.05-30.73,8.65-2.93-10.43c3.28-.92,3.25-2.52,2.42-5.49l-2.06-7.3c-.48-1.72-1.41-2.93-3.64-4.24,1.21-2.28,1.36-3.84.89-5.52l-2.06-7.3c-.84-3.01-1.65-4.38-4.93-3.46l-2.93-10.43,15.46-4.35,2.93,10.43c-3.28.92-3.21,2.51-2.37,5.51l2.08,7.38Z"/>
      <path class="cls-1" d="M202.62,55c4.43-.84,5.24-4.17,4.36-8.88l7.38-1.39,3.47,18.43-31.08,5.86-2.02-10.69c3.31-.62,3.51-1.98,2.9-5.22l-1.41-7.46c-.33-1.76-1.15-3.05-3.25-4.55,1.41-2.17,1.7-3.71,1.37-5.43l-1.41-7.46c-.62-3.27-1.29-4.43-4.6-3.8l-2.02-10.73,31.08-5.86,3.48,18.43-7.38,1.39c-.9-4.75-2.86-7.52-7.29-6.68l-5.79,1.09,2.67,14.16c5.11-.96,6.22-1.17,5.44-5.32l4.43-.84,2.65,14.04-4.43.84c-.79-4.19-1.95-3.97-7.01-3.02l2.67,14.16,5.79-1.09Z"/>
      <path class="cls-1" d="M257.81,12.97c-2.18.21-2.53,1.71-2.4,3.12.06.65.25,1.32.37,1.76l2.16,7.42c.49,1.75,1.55,3.07,3.95,4.72-.84,1.43-1.15,2.55-1.04,3.72.05.48.13.97.3,1.44,1.95,6.38,2.56,12.03,7.08,11.6l1.02,10.79-15.68,1.48-1.01-10.79c2.42-.23,3.04-1.06,2.91-2.48-.06-.64-.3-1.48-.59-2.39l-1.67-5.63-9.29.88-.59,5.84c-.11.95-.2,1.81-.14,2.46.13,1.41.89,2.12,3.32,1.89l1.02,10.79-15.72,1.48-1.02-10.79c2.55-.24,3.77-2.43,4.09-5.03,0-.04.87-8.11.77-9.16-.11-1.17-.62-2.23-1.71-3.47,4.01-4.13,2.84-6.18,3.74-13.07.08-.46.1-1.11.04-1.76-.13-1.41-.76-2.86-2.94-2.66l-1.02-10.79,23.03-2.17,1.01,10.79ZM246.38,14.94c-1.25,11.86-.62,5.93-1.83,17.78l6.95-.65-5.12-17.13Z"/>
      <path class="cls-1" d="M301.34,23.75c.03,1.75.62,3.2,2.44,5.03-1.75,1.9-2.3,3.32-2.27,5.11l.12,7.59c.05,3.08.44,4.62,3.89,4.56l.18,10.83-16.11.27-.18-10.83c3.45-.06,3.79-1.6,3.74-4.69l-.13-7.59c-.03-1.79-.62-3.2-2.44-5.03,1.75-1.9,2.3-3.37,2.27-5.11l-.21-12.29c-5.11.08-6.95,1.7-6.85,7.83l-5.88.1-.32-18.95,4.83-.08,1.33,1.72c1.28-1.12,2.9-1.35,4.16-1.37l13.55-.23c1.3-.02,2.92.15,4.2,1.23l1.31-1.77,4.83-.08.32,18.95-5.92.1c-.1-6.01-1.92-7.68-7.07-7.59l.2,12.29Z"/>
      <path class="cls-1" d="M356.18,28.71l.85-9.69c.27-3.11.05-4.68-3.39-4.98l.95-10.79,16.04,1.41-.95,10.79c-3.43-.3-3.93,1.2-4.21,4.31l-.67,7.64c-.18,2.1.66,3.6,1.91,5.17-1.59,1.37-2.59,2.66-2.79,4.85l-.67,7.56c-.27,3.07-.04,4.64,3.39,4.94l-.95,10.79-16.04-1.41.95-10.79c3.43.3,3.93-1.2,4.2-4.27l.86-9.74-12.57-1.11-.85,9.74c-.27,3.07-.04,4.64,3.35,4.94l-.95,10.79-16-1.41.95-10.79c3.39.3,3.93-1.2,4.2-4.27l.66-7.56c.16-1.78-.28-3.24-1.9-5.26,1.94-1.7,2.63-3.11,2.79-4.84l.67-7.56c.27-3.11,0-4.68-3.39-4.98l.95-10.79,16,1.4-.95,10.79c-3.39-.3-3.89,1.2-4.17,4.31l-.85,9.7,12.56,1.1Z"/>
      <path class="cls-1" d="M399.56,55.37c4.43.81,6.39-2.01,7.24-6.72l7.38,1.35-3.36,18.43-31.08-5.66,1.95-10.69c3.31.6,3.98-.6,4.57-3.83l1.36-7.46c.32-1.76.01-3.25-1.41-5.41,2.09-1.52,2.91-2.85,3.22-4.57l1.36-7.46c.6-3.27.38-4.59-2.93-5.19l1.96-10.73,31.08,5.66-3.36,18.43-7.38-1.34c.87-4.75.02-8.03-4.41-8.84l-5.79-1.05-2.58,14.16c5.11.93,6.22,1.13,6.98-3.02l4.43.81-2.56,14.04-4.43-.81c.77-4.19-.39-4.4-5.46-5.32l-2.58,14.17,5.79,1.05Z"/>
      <path class="cls-1" d="M440.64,59.99c-.83,2.97-.89,4.55,2.39,5.47l-2.91,10.43-15.47-4.32,2.91-10.43c3.32.93,4.08-.46,4.91-3.43l2.04-7.3c.48-1.72.32-3.24-.9-5.52,2.22-1.31,3.16-2.57,3.63-4.25l2.04-7.3c.84-3.01.9-4.59-2.42-5.52l2.91-10.43,20.03,5.59c6.41,1.79,10.21,8.53,8.39,15.02l-1.79,6.4c-1.16,4.14-4.37,7.2-8.19,8.37,1.01,1.96,1.47,4.24,1.24,6.87l-.54,6.16c-.14,1.4.19,4.14,3.32,5.01l-2.91,10.43-5.9-1.65c-5.78-1.61-4.51-4.67-2.98-21.29.29-3.16-.86-5.96-4.53-6.99l-2.66-.74-2.63,9.41ZM444.82,45l6.17,1.72c3.05.85,6.24-.95,7.09-4l.77-2.73c.86-3.09-.94-6.28-3.99-7.13l-6.17-1.72-3.87,13.86Z"/>
    </g>
    <g class="cls-2">
      <path class="cls-1" d="M166.58,338.7l1.96-10.65c2.59.48,3.53-1.5,3.81-3.01.06-.36.08-.69.09-.97-.14-6.17,1.55-8.62-2.09-13.25,1.33-1.2,1.95-2.28,2.17-3.52.15-.8.33-8.07.32-8.89.01-2.97-1.19-4.97-4.42-5.56l1.96-10.65,15.8,2.91-1.96,10.65c-2-.36-2.66.79-2.9,2.07-.14.76-.13,1.59-.14,2.12l-.43,24.47,8.69-22.95c.22-.54.53-1.3.68-2.1.23-1.24.01-2.52-1.9-2.87l1.96-10.65,18.35,3.39-1.96,10.65c-1.96-.36-2.62.75-2.84,1.99-.15.8-.14,1.62-.12,2.21l-.06,24.53,8.33-23.01c.17-.5.48-1.27.62-2.03.24-1.28.02-2.6-1.97-2.96l1.96-10.65,15.8,2.92-1.96,10.65c-3.23-.6-5.14.82-6.11,3.61l-1.98,5.62c-.37,1.09-.74,1.97-.9,2.85-.21,1.15-.09,2.29.83,4.03-5.14,3.06-4.45,5.99-6.72,11.64-.09.27-.19.58-.26.94-.28,1.51-.1,3.7,2.49,4.17l-1.96,10.65-19.99-3.68,1.96-10.65c1.6.29,2.18-.63,2.39-1.75.16-.88.1-1.88.09-2.5l.26-24.91-8.68,23.36c-.23.58-.65,1.53-.82,2.41-.21,1.12.02,2.15,1.61,2.45l-1.96,10.65-19.99-3.68Z"/>
      <path class="cls-1" d="M271.61,329.14l-.82,11.3c-.46,6.68-6.26,11.77-12.94,11.31l-6.56-.45c-6.64-.45-11.73-6.3-11.27-12.98l.78-11.3c.15-2.19-.68-3.63-2-5.23,1.48-1.36,2.55-2.71,2.69-4.81l.78-11.38c.46-6.68,6.31-11.82,12.95-11.36l6.56.45c6.68.47,11.73,6.34,11.27,13.02l-.74,11.38c-.15,2.1.73,3.59,2,5.14-1.56,1.4-2.55,2.71-2.7,4.9ZM263.8,318.96l.48-6.97c.22-3.2-2.19-5.97-5.35-6.18l-2.39-.17c-3.16-.22-5.93,2.2-6.15,5.39l-.48,6.97c.02,1.55.53,2.92,2.04,4.7-1.73,1.55-2.43,2.84-2.66,4.33l-.48,7.01c-.22,3.15,2.19,5.92,5.35,6.15l2.39.16c3.16.22,5.93-2.2,6.15-5.36l.48-7c-.02-1.51-.53-2.89-2.04-4.66,1.74-1.55,2.43-2.85,2.66-4.37Z"/>
      <path class="cls-1" d="M302.38,336.98c.06,3.08.46,4.62,3.87,4.55l.23,10.83-16.07.34-.23-10.83c3.45-.08,3.78-1.62,3.72-4.71l-.16-7.59c-.04-1.79-.63-3.19-2.46-5.02,1.75-1.9,2.29-3.38,2.25-5.12l-.16-7.58c-.06-3.13-.46-4.66-3.91-4.59l-.23-10.83,20.81-.44c6.65-.14,12.25,5.23,12.39,11.96l.14,6.65c.09,4.3-2.1,8.16-5.43,10.38,1.53,1.6,2.63,3.64,3.17,6.23l1.26,6.06c.27,1.37,1.38,3.91,4.63,3.84l.23,10.83-6.13.13c-6.01.12-5.67-3.17-9.01-19.54-.63-3.11-2.55-5.47-6.36-5.39l-2.76.06.21,9.78ZM302.06,321.4l6.41-.13c3.16-.07,5.71-2.72,5.64-5.89l-.06-2.84c-.06-3.2-2.72-5.75-5.88-5.68l-6.41.14.3,14.4Z"/>
      <path class="cls-1" d="M354.96,333.87c.36,3.07.94,4.55,4.33,4.15l1.26,10.77-15.96,1.87-1.27-10.77c3.39-.39,3.57-1.97,3.21-5.04l-.88-7.54c-.21-1.77-.9-3.12-2.93-4.77,1.6-2.07,1.95-3.58,1.74-5.31l-.88-7.54c-.37-3.11-.91-4.59-4.29-4.19l-1.27-10.77,15.97-1.88,1.26,10.77c-3.39.4-3.61,1.98-3.24,5.08l1.38,11.73,7.17-12.74c.85-1.49,1.36-2.74,1.26-3.58-.09-.77-.75-1.18-2.2-1.01l-1.26-10.77,15.76-1.86,1.27,10.77c-2.58.3-5.2,3.76-6.46,5.91l-6.19,11.03,12.19,13.69c1.79,2.04,3.6,3.87,5.94,3.59l1.26,10.77-16.17,1.9-1.26-10.77c1.49-.17,2.04-.73,1.94-1.57-.1-.85-.84-1.95-1.93-3.21l-6.07-7.1-3.85,6.87.18,1.49Z"/>
      <path class="cls-1" d="M418.3,281.79l4.04,19.19-7.35,1.55c-1.26-6-3.59-8.21-7.73-7.34-4.81,1.01-6.23,2.93-5.36,7.07.78,3.7,3.35,5.43,6.92,4.68,1.23-.26,1.89-.69,3.11-1.4.95,1.75,2.02,2.48,4.06,2.92,7.08,1.5,10.77,5.24,12.2,12.04l.44,2.27c1.84,8.95-3.8,15.65-11.43,17.26-3.85.81-7.02,1.15-10.13-.23l-1.08,2.14-4.73,1-4.04-19.19,7.35-1.55c1.58,7.51,4.67,7.98,10.07,6.84,3.1-.65,5.07-3.72,4.41-6.82l-.23-1.07c-.6-2.86-3.93-4.86-7.66-4.07-1.03.22-2.11.61-3.2,1.34-1.77-3.28-5.27-2.95-8.34-4.55-4.37-2.23-5.53-4.98-7.04-12.17-1.52-7.23,1-15.15,11.21-17.3,2.74-.58,6.21-1.06,8.71.57l1.08-2.17,4.73-1Z"/>
    </g>
    <g>
      <g>
        <path class="cls-1" d="M24.64,202.88v16.61H0v-16.61c5.23,0,5.85-2.36,5.85-7.09v-11.63c0-2.74-.87-4.91-3.61-7.78,2.74-2.86,3.61-5.1,3.61-7.78v-11.63c0-4.79-.62-7.15-5.85-7.15v-16.61h33.04c10.27,0,18.6,8.4,18.6,18.73v12.44c0,10.27-8.34,18.66-18.6,18.66h-14.19v12.75c0,4.73.56,7.09,5.79,7.09ZM18.85,174.14h11.01c4.85,0,8.77-3.98,8.77-8.83v-6.59c0-4.91-3.92-8.9-8.77-8.9h-11.01v24.33Z"/>
        <path class="cls-1" d="M78.64,195.79c0,4.73.56,7.09,5.79,7.09v16.61h-24.64v-16.61c5.29,0,5.85-2.36,5.85-7.09v-11.63c0-2.74-.87-4.91-3.61-7.78,2.74-2.86,3.61-5.1,3.61-7.78v-11.63c0-4.79-.56-7.15-5.85-7.15v-16.61h31.92c10.2,0,18.6,8.4,18.6,18.73v10.2c0,6.59-3.48,12.44-8.65,15.74,2.3,2.49,3.92,5.66,4.67,9.64l1.74,9.33c.37,2.12,1.99,6.03,6.97,6.03v16.61h-9.39c-9.21,0-8.59-5.04-13.19-30.24-.87-4.79-3.73-8.46-9.58-8.46h-4.23v14.99ZM78.64,171.9h9.83c4.85,0,8.83-3.98,8.83-8.83v-4.36c0-4.91-3.98-8.9-8.83-8.9h-9.83v22.09Z"/>
        <path class="cls-1" d="M172.27,184.16l-.06,17.36c0,10.27-8.34,18.66-18.6,18.66h-10.08c-10.2,0-18.6-8.4-18.6-18.66v-17.36c0-3.36-1.43-5.47-3.61-7.78,2.12-2.24,3.61-4.42,3.61-7.65v-17.48c0-10.27,8.4-18.73,18.6-18.73h10.08c10.27,0,18.6,8.46,18.6,18.73l.06,17.48c0,3.24,1.49,5.41,3.61,7.65-2.24,2.3-3.61,4.42-3.61,7.78ZM159.26,169.41v-10.7c0-4.91-3.98-8.9-8.83-8.9h-3.67c-4.85,0-8.83,3.98-8.83,8.9v10.7c.19,2.36,1.12,4.42,3.61,6.97-2.49,2.55-3.42,4.6-3.61,6.91v10.76c0,4.85,3.98,8.83,8.83,8.83h3.67c4.85,0,8.83-3.98,8.83-8.83v-10.76c-.19-2.3-1.12-4.36-3.61-6.91,2.49-2.55,3.42-4.6,3.61-6.97Z"/>
        <path class="cls-1" d="M228.88,133.2v30.05h-11.51c0-9.39-2.8-13.44-9.27-13.44-7.53,0-10.27,2.43-10.27,8.9,0,5.79,3.3,9.21,8.9,9.21,1.93,0,3.05-.44,5.1-1.12.87,2.92,2.24,4.36,5.16,5.66,10.14,4.48,14.5,11.26,14.5,21.9l-.06,3.55c-.06,14-10.64,22.27-22.58,22.27-6.03,0-10.89-.5-15.12-3.55l-2.3,2.86h-7.4v-30.05h11.51c0,11.76,4.48,13.44,12.94,13.44,4.85,0,8.77-3.98,8.77-8.83v-1.68c0-4.48-4.36-8.52-10.2-8.52-1.62,0-3.36.25-5.23,1-1.62-5.47-6.97-6.1-11.07-9.46-5.85-4.73-6.72-9.21-6.72-20.47s6.28-22.4,22.27-22.4c4.29,0,9.64.37,12.88,3.61l2.3-2.92h7.4Z"/>
        <path class="cls-1" d="M264.28,202.88v16.61h-24.64v-16.61c5.23,0,5.85-2.36,5.85-7.09v-11.63c0-2.74-.87-4.91-3.61-7.78,2.74-2.86,3.61-5.1,3.61-7.78v-11.63c0-4.79-.62-7.15-5.85-7.15v-16.61h33.04c10.27,0,18.6,8.4,18.6,18.73v12.44c0,10.27-8.34,18.66-18.6,18.66h-14.19v12.75c0,4.73.56,7.09,5.79,7.09ZM258.49,174.14h11.01c4.85,0,8.77-3.98,8.77-8.83v-6.59c0-4.91-3.92-8.9-8.77-8.9h-11.01v24.33Z"/>
        <path class="cls-1" d="M327.3,202.88c6.91,0,9.08-4.79,9.08-12.13h11.51v28.74h-48.47v-16.67c5.16,0,5.85-1.99,5.85-7.03v-11.63c0-2.74-.87-4.91-3.61-7.78,2.74-2.86,3.61-5.1,3.61-7.78v-11.63c0-5.1-.68-7.03-5.85-7.03v-16.74h48.47v28.74h-11.51c0-7.4-2.18-12.13-9.08-12.13h-9.02v22.09c7.96,0,9.71,0,9.71-6.47h6.91v21.9h-6.91c0-6.53-1.8-6.53-9.71-6.53v22.09h9.02Z"/>
        <path class="cls-1" d="M397.85,133.2h7.4v30.05h-11.51c0-9.08-2.99-13.44-9.21-13.44h-3.05c-4.85,0-8.77,3.98-8.77,8.9v10.7c.12,2.36,1.06,4.42,3.55,6.97-2.49,2.55-3.42,4.6-3.55,6.91v10.76c0,4.85,3.92,8.83,8.77,8.83h4.91c6.78-.19,9.08-4.29,9.08-13.44h11.51v30.05h-7.4l-2.3-2.86c-3.86,2.8-9.08,3.55-13.44,3.55h-5.54c-10.27,0-18.6-8.4-18.6-18.66,0-5.6-.06-11.82-.06-17.36,0-3.36-1.37-5.47-3.61-7.78,2.18-2.24,3.61-4.42,3.61-7.65,0-5.6.06-11.88.06-17.48,0-10.27,8.34-18.73,18.6-18.73h6.84c3.73,0,7.47.68,10.39,3.61l2.3-2.92Z"/>
        <path class="cls-1" d="M449.74,168.6c0,2.68.87,4.91,3.61,7.78-2.74,2.86-3.61,5.04-3.61,7.78v11.63c0,4.73.56,7.09,5.85,7.09v16.61h-24.7v-16.61c5.29,0,5.85-2.36,5.85-7.09v-11.63c0-2.74-.87-4.91-3.61-7.78,2.74-2.86,3.61-5.1,3.61-7.78v-18.85c-7.84,0-10.7,2.43-10.7,11.82h-9.02v-29.05h7.4l1.99,2.68c1.99-1.68,4.48-1.99,6.41-1.99h20.78c1.99,0,4.48.31,6.41,1.99l2.05-2.68h7.4v29.05h-9.08c0-9.21-2.74-11.82-10.64-11.82v18.85Z"/>
        <path class="cls-1" d="M528.56,184.16l-.06,17.36c0,10.27-8.34,18.66-18.6,18.66h-10.08c-10.2,0-18.6-8.4-18.6-18.66v-17.36c0-3.36-1.43-5.47-3.61-7.78,2.12-2.24,3.61-4.42,3.61-7.65v-17.48c0-10.27,8.4-18.73,18.6-18.73h10.08c10.27,0,18.6,8.46,18.6,18.73l.06,17.48c0,3.24,1.49,5.41,3.61,7.65-2.24,2.3-3.61,4.42-3.61,7.78ZM515.56,169.41v-10.7c0-4.91-3.98-8.9-8.83-8.9h-3.67c-4.85,0-8.83,3.98-8.83,8.9v10.7c.19,2.36,1.12,4.42,3.61,6.97-2.49,2.55-3.42,4.6-3.61,6.91v10.76c0,4.85,3.98,8.83,8.83,8.83h3.67c4.85,0,8.83-3.98,8.83-8.83v-10.76c-.19-2.3-1.12-4.36-3.61-6.91,2.49-2.55,3.42-4.6,3.61-6.97Z"/>
        <path class="cls-1" d="M559.17,195.79c0,4.73.56,7.09,5.79,7.09v16.61h-24.64v-16.61c5.29,0,5.85-2.36,5.85-7.09v-11.63c0-2.74-.87-4.91-3.61-7.78,2.74-2.86,3.61-5.1,3.61-7.78v-11.63c0-4.79-.56-7.15-5.85-7.15v-16.61h31.92c10.2,0,18.6,8.4,18.6,18.73v10.2c0,6.59-3.48,12.44-8.65,15.74,2.3,2.49,3.92,5.66,4.67,9.64l1.74,9.33c.37,2.12,1.99,6.03,6.97,6.03v16.61h-9.39c-9.21,0-8.59-5.04-13.19-30.24-.87-4.79-3.73-8.46-9.58-8.46h-4.23v14.99ZM559.17,171.9h9.83c4.85,0,8.83-3.98,8.83-8.83v-4.36c0-4.91-3.98-8.9-8.83-8.9h-9.83v22.09Z"/>
      </g>
      <rect class="cls-1" y="110.47" width="595.56" height="5.04"/>
      <rect class="cls-1" y="237.19" width="595.56" height="5.04"/>
    </g>
  </g>
</svg>